HIERARCHY
ROOT Hips
{
	OFFSET 0.000000 0.000000 0.000000
	CHANNELS 6 Xposition Yposition Zposition Xrotation Yrotation Zrotation
	JOINT LeftUpLeg_virtual
	{
		OFFSET 0.000000 0.000000 0.000000
		CHANNELS 3 Xrotation Yrotation Zrotation
		JOINT LeftUpLeg
		{
			OFFSET 11.394100 -6.187798 -0.413800
			CHANNELS 3 Xrotation Yrotation Zrotation
			JOINT LeftLeg
			{
				OFFSET 0.430247 -32.302673 3.732800
				CHANNELS 3 Xrotation Yrotation Zrotation
				JOINT LeftFoot
				{
					OFFSET -0.430247 -48.264931 -6.423300
					CHANNELS 3 Xrotation Yrotation Zrotation
					JOINT LeftToeBase
					{
						OFFSET 4.230900 -16.068199 23.438400
						CHANNELS 3 Xrotation Yrotation Zrotation
						JOINT LeftToe_End
						{
							OFFSET 4.510700 0.695400 19.974600
							CHANNELS 3 Xrotation Yrotation Zrotation
							End Site
							{
								OFFSET 0 0 0
							}
						}
					}
				}
			}
		}
	}
	JOINT RightUpLeg_virtual
	{
		OFFSET 0.000000 0.000000 0.000000
		CHANNELS 3 Xrotation Yrotation Zrotation
		JOINT RightUpLeg
		{
			OFFSET -11.333700 -6.187798 -0.413800
			CHANNELS 3 Xrotation Yrotation Zrotation
			JOINT RightLeg
			{
				OFFSET -0.430392 -32.302628 3.733000
				CHANNELS 3 Xrotation Yrotation Zrotation
				JOINT RightFoot
				{
					OFFSET 0.430392 -48.264973 -6.423500
					CHANNELS 3 Xrotation Yrotation Zrotation
					JOINT RightToeBase
					{
						OFFSET -4.230900 -16.068199 23.438400
						CHANNELS 3 Xrotation Yrotation Zrotation
						JOINT RightToe_End
						{
							OFFSET -4.510700 0.695400 19.974600
							CHANNELS 3 Xrotation Yrotation Zrotation
							End Site
							{
								OFFSET 0 0 0
							}
						}
					}
				}
			}
		}
	}
	JOINT Spine_virtual
	{
		OFFSET 0.000000 0.000000 0.000000
		CHANNELS 3 Xrotation Yrotation Zrotation
		JOINT Spine
		{
			OFFSET -0.002400 12.777504 0.315300
			CHANNELS 3 Xrotation Yrotation Zrotation
			JOINT Spine1
			{
				OFFSET -0.002067 5.816869 0.032633
				CHANNELS 3 Xrotation Yrotation Zrotation
				JOINT Spine1_split
				{
					OFFSET -0.002067 5.816869 0.032633
					CHANNELS 3 Xrotation Yrotation Zrotation
					JOINT Spine2
					{
						OFFSET -0.002067 5.816869 0.032633
						CHANNELS 3 Xrotation Yrotation Zrotation
						JOINT Neck_virtual
						{
							OFFSET 0.000000 0.000000 0.000000
							CHANNELS 3 Xrotation Yrotation Zrotation
							JOINT Neck
							{
								OFFSET -0.003700 21.199493 -0.826900
								CHANNELS 3 Xrotation Yrotation Zrotation
								JOINT Head
								{
									OFFSET 0.000000 20.442200 4.834800
									CHANNELS 3 Xrotation Yrotation Zrotation
									JOINT HeadTop_End
									{
										OFFSET 0.000000 34.668396 4.968400
										CHANNELS 3 Xrotation Yrotation Zrotation
										End Site
										{
											OFFSET 0 0 0
										}
									}
								}
							}
						}
						JOINT LeftShoulder_virtual
						{
							OFFSET 0.000000 0.000000 0.000000
							CHANNELS 3 Xrotation Yrotation Zrotation
							JOINT LeftShoulder
							{
								OFFSET 3.288150 8.794197 -1.372250
								CHANNELS 3 Xrotation Yrotation Zrotation
								JOINT LeftShoulder_split
								{
									OFFSET 3.288150 8.794197 -1.372250
									CHANNELS 3 Xrotation Yrotation Zrotation
									JOINT LeftArm
									{
										OFFSET 11.953299 -2.279007 -0.146200
										CHANNELS 3 Xrotation Yrotation Zrotation
										JOINT LeftForeArm
										{
											OFFSET 18.448900 0.000000 0.000000
											CHANNELS 3 Xrotation Yrotation Zrotation
											JOINT LeftHand
											{
												OFFSET 29.527798 0.000000 0.000000
												CHANNELS 3 Xrotation Yrotation Zrotation
												End Site
												{
													OFFSET 0 0 0
												}
											}
										}
									}
								}
							}
						}
						JOINT RightShoulder_virtual
						{
							OFFSET 0.000000 0.000000 0.000000
							CHANNELS 3 Xrotation Yrotation Zrotation
							JOINT RightShoulder
							{
								OFFSET -3.249400 8.794197 -1.372250
								CHANNELS 3 Xrotation Yrotation Zrotation
								JOINT RightShoulder_split
								{
									OFFSET -3.249400 8.794197 -1.372250
									CHANNELS 3 Xrotation Yrotation Zrotation
									JOINT RightArm
									{
										OFFSET -11.953299 -2.279007 -0.146200
										CHANNELS 3 Xrotation Yrotation Zrotation
										JOINT RightForeArm
										{
											OFFSET -18.448900 0.000000 0.000000
											CHANNELS 3 Xrotation Yrotation Zrotation
											JOINT RightHand
											{
												OFFSET -29.527802 0.000000 0.000000
												CHANNELS 3 Xrotation Yrotation Zrotation
												End Site
												{
													OFFSET 0 0 0
												}
											}
										}
									}
								}
							}
						}
					}
				}
			}
		}
	}
}
MOTION
Frames: 4
Frame Time: 0.03333333
-1.673765 96.460724 -11.206326 0.000000 0.000000 0.000000 3.526476 -39.599695 7.412766 -34.641879 1.231087 12.614988 14.927185 -7.486582 3.178114 16.333552 0.480204 -16.326037 4.026492 -0.498301 -0.673072 0.000000 0.000000 0.000000 3.261661 -38.885954 7.427717 -14.317227 -11.114864 -15.869642 25.304078 6.267239 -6.469354 -12.276605 -18.300341 29.446807 5.695913 9.559377 -19.567293 0.000000 0.000000 0.000000 0.730474 -33.082571 5.960743 -2.476017 11.410714 -2.904650 4.284315 -4.708734 2.580055 0.189422 -0.302205 -0.078687 0.000000 0.000000 0.000000 8.565272 -1.334461 1.380291 -13.412256 -0.788960 11.864859 -1.954111 -26.480230 33.938011 0.000000 0.000000 0.000000 7.110378 -3.896843 0.926141 -4.279223 -19.511868 -25.311387 -4.300094 1.635489 -4.733220 -3.104125 6.254940 -23.810555 60.630674 -32.240532 33.577196 0.000000 0.000000 0.000000 9.405228 -2.840123 1.760126 -6.655594 9.901531 -8.716649 1.869137 9.671826 -1.810611 -87.000074 12.079918 -7.538813 -65.947252 45.384240 56.492778 0.000000 0.000000 0.000000 
-0.721954 96.057167 -11.109970 0.000000 0.000000 0.000000 3.905500 -42.325163 8.089987 -34.453554 2.592864 13.048419 16.327965 -7.254850 3.114568 15.004519 0.688959 -16.106329 4.215806 -0.527905 -0.573358 0.000000 0.000000 0.000000 3.735768 -41.075832 8.078834 -16.994650 -10.106032 -16.606411 26.599236 7.074166 -6.740654 -11.102182 -16.957601 29.614700 5.343351 9.491002 -20.447956 0.000000 0.000000 0.000000 0.780598 -35.333183 6.299618 -2.364670 10.676174 -2.874750 5.054787 -4.145045 2.623632 0.139945 -0.267465 -0.079255 0.000000 0.000000 0.000000 8.868325 -0.712480 1.444361 -14.462668 0.926693 10.680844 -1.162191 -24.612626 27.700131 0.000000 0.000000 0.000000 7.533133 -3.286845 0.897469 -4.004233 -19.642910 -23.887274 -4.272920 1.936863 -5.304072 -3.793319 8.041342 -24.710098 61.460310 -34.018068 35.661401 0.000000 0.000000 0.000000 9.771614 -2.171883 1.806401 -7.836245 10.005490 -4.396095 2.682790 8.500504 -0.104335 -79.556513 12.767786 -4.124103 -70.185460 49.791953 61.245029 0.000000 0.000000 0.000000 
0.123702 95.493477 -11.075542 0.000000 0.000000 0.000000 4.252801 -45.022042 8.795360 -34.392847 4.125749 13.654788 17.870830 -7.043703 3.002843 13.574243 0.958464 -15.743412 4.701079 -0.536355 -0.552096 0.000000 0.000000 0.000000 4.142447 -43.206762 8.709428 -19.854132 -8.954860 -17.286276 28.331853 7.810285 -7.001391 -10.256479 -15.779634 29.626530 5.371831 9.444489 -21.411617 0.000000 0.000000 0.000000 0.928095 -37.444012 6.653284 -1.992308 9.854475 -2.826963 5.767701 -3.743985 2.542201 0.130276 -0.264236 -0.074544 0.000000 0.000000 0.000000 9.158694 -0.235488 1.410524 -15.821346 2.526844 9.842696 -0.633670 -22.715722 21.612587 0.000000 0.000000 0.000000 7.979771 -2.826511 0.787698 -3.706865 -19.788363 -22.193714 -4.205604 2.081516 -5.815128 -4.619550 9.173598 -25.303242 60.635510 -34.895529 36.174878 0.000000 0.000000 0.000000 10.144484 -1.638661 1.769693 -8.876586 10.330715 -0.205149 3.416488 7.603346 1.826015 -71.761383 13.343384 -0.613860 -72.740811 54.152632 63.782772 0.000000 0.000000 0.000000 
0.862428 94.794792 -11.019348 0.000000 0.000000 0.000000 4.456251 -47.426344 9.377108 -34.610474 5.650123 14.423819 19.623999 -6.915902 2.822983 12.152319 1.163744 -15.347811 5.136241 -0.538223 -0.654494 0.000000 0.000000 0.000000 4.417357 -45.120960 9.208586 -22.692653 -7.738042 -17.840961 30.479617 8.477089 -7.241036 -9.615115 -14.733655 29.582577 5.534790 9.449030 -22.328901 0.000000 0.000000 0.000000 1.104975 -39.310262 6.975416 -1.425046 8.987038 -2.738123 6.399990 -3.521376 2.390791 0.132764 -0.281691 -0.055867 0.000000 0.000000 0.000000 9.467201 0.052161 1.334720 -17.463933 4.021935 9.388512 -0.708642 -20.494268 15.506213 0.000000 0.000000 0.000000 8.427998 -2.539114 0.650024 -3.407151 -19.927572 -20.361414 -4.106244 1.975069 -6.349634 -5.554691 9.677856 -25.522387 58.326633 -35.208061 35.310992 0.000000 0.000000 0.000000 10.530463 -1.280767 1.682329 -9.737055 10.838879 3.681048 3.932119 6.710587 3.348999 -63.895088 13.977960 2.796926 -72.188140 58.439754 62.702796 0.000000 0.000000 0.000000 
